<mxfile host="app.diagrams.net" agent="Mozilla/5.0 (Windows NT 10.0; Win64; x64) AppleWebKit/537.36 (KHTML, like Gecko) Chrome/132.0.0.0 YaBrowser/25.2.0.0 Safari/537.36" version="26.2.2">
  <diagram name="Страница — 1" id="NVSp2yIijnYOlpHx9T0u">
    <mxGraphModel dx="1167" dy="775" grid="1" gridSize="10" guides="1" tooltips="1" connect="1" arrows="1" fold="1" page="1" pageScale="1" pageWidth="827" pageHeight="1169" math="0" shadow="0">
      <root>
        <mxCell id="0" />
        <mxCell id="1" parent="0" />
        <mxCell id="CAKeN5ZUv2bO-fXdCas4-1" value="" style="rounded=0;whiteSpace=wrap;html=1;fillColor=#b1ddf0;strokeColor=#10739e;" vertex="1" parent="1">
          <mxGeometry x="160" y="200" width="400" height="400" as="geometry" />
        </mxCell>
        <mxCell id="CAKeN5ZUv2bO-fXdCas4-2" value="" style="rounded=0;whiteSpace=wrap;html=1;" vertex="1" parent="1">
          <mxGeometry x="183" y="580" width="354" height="10" as="geometry" />
        </mxCell>
        <mxCell id="CAKeN5ZUv2bO-fXdCas4-3" value="" style="rounded=0;whiteSpace=wrap;html=1;fillColor=#fad9d5;strokeColor=#ae4132;" vertex="1" parent="1">
          <mxGeometry x="200" y="540" width="40" height="40" as="geometry" />
        </mxCell>
        <mxCell id="CAKeN5ZUv2bO-fXdCas4-4" value="" style="rounded=0;whiteSpace=wrap;html=1;" vertex="1" parent="1">
          <mxGeometry x="414" y="520" width="130" height="20" as="geometry" />
        </mxCell>
        <mxCell id="CAKeN5ZUv2bO-fXdCas4-6" value="" style="rounded=0;whiteSpace=wrap;html=1;" vertex="1" parent="1">
          <mxGeometry x="320" y="350" width="130" height="20" as="geometry" />
        </mxCell>
        <mxCell id="CAKeN5ZUv2bO-fXdCas4-7" value="" style="rounded=0;whiteSpace=wrap;html=1;" vertex="1" parent="1">
          <mxGeometry x="160" y="410" width="130" height="20" as="geometry" />
        </mxCell>
        <mxCell id="CAKeN5ZUv2bO-fXdCas4-8" value="" style="rounded=0;whiteSpace=wrap;html=1;" vertex="1" parent="1">
          <mxGeometry x="240" y="480" width="130" height="20" as="geometry" />
        </mxCell>
        <mxCell id="CAKeN5ZUv2bO-fXdCas4-9" value="" style="rounded=0;whiteSpace=wrap;html=1;" vertex="1" parent="1">
          <mxGeometry x="260" y="260" width="130" height="20" as="geometry" />
        </mxCell>
        <mxCell id="CAKeN5ZUv2bO-fXdCas4-10" value="" style="rounded=0;whiteSpace=wrap;html=1;" vertex="1" parent="1">
          <mxGeometry x="430" y="300" width="130" height="20" as="geometry" />
        </mxCell>
        <mxCell id="CAKeN5ZUv2bO-fXdCas4-11" value="" style="rounded=0;whiteSpace=wrap;html=1;" vertex="1" parent="1">
          <mxGeometry x="160" y="260" width="100" height="20" as="geometry" />
        </mxCell>
      </root>
    </mxGraphModel>
  </diagram>
</mxfile>
